<?xml version="1.0" encoding="UTF-8" standalone="no"?> <svg width="512" height="512" viewBox="0 0 512 512" fill="none" xmlns="http://www.w3.org/2000/svg">
<path d="M416 74.667H74.667C51.1027 74.667 32 93.7697 32 117.334V373.333C32 396.897 51.1027 416 74.667 416H416C439.564 416 458.667 396.897 458.667 373.333V117.334C458.667 93.7697 439.564 74.667 416 74.667Z" fill="#2D4A60"/>
<path d="M458.667 362.667V373.334C458.667 384.65 454.171 395.502 446.17 403.503C438.168 411.505 427.316 416 416 416H74.667C63.351 416 52.4985 411.505 44.4969 403.503C36.4953 395.501 32 384.649 32 373.333V362.667H458.667Z" fill="#263F52"/>
<path d="M309.868 215.686L201.068 152.87C199.609 152.028 197.953 151.584 196.268 151.584C194.583 151.584 192.927 152.028 191.468 152.87C190.009 153.713 188.797 154.925 187.954 156.384C187.111 157.843 186.668 159.499 186.668 161.184V286.816C186.668 288.501 187.111 290.157 187.954 291.616C188.797 293.076 190.009 294.288 191.468 295.13C192.927 295.973 194.583 296.416 196.268 296.416C197.953 296.416 199.609 295.973 201.068 295.13L309.868 232.314C311.327 231.472 312.539 230.26 313.382 228.8C314.225 227.341 314.668 225.685 314.668 224C314.668 222.315 314.225 220.659 313.382 219.2C312.539 217.741 311.327 216.529 309.868 215.686V215.686Z" fill="#EAEFF0"/>
<path d="M390.4 317.867V258.133L480 347.733L390.4 437.333V377.6C315.733 377.6 256 422.4 256 422.4C256 422.4 285.867 317.867 390.4 317.867Z" fill="#FAC100"/>
<path d="M223.999 352H42.665V117.333C42.6746 108.849 46.049 100.715 52.0481 94.7161C58.0472 88.717 66.181 85.3425 74.665 85.333H415.999C424.483 85.3425 432.617 88.717 438.616 94.7161C444.615 100.715 447.989 108.849 447.999 117.333V256C448.026 258.811 449.162 261.498 451.159 263.476C453.157 265.454 455.854 266.564 458.666 266.564C461.477 266.564 464.174 265.454 466.172 263.476C468.169 261.498 469.305 258.811 469.332 256V117.333C469.316 103.193 463.692 89.6368 453.694 79.6384C443.695 69.64 430.139 64.0159 415.999 64H74.665C60.5251 64.0159 46.9689 69.64 36.9704 79.6384C26.972 89.6368 21.3479 103.193 21.332 117.333V373.333C21.3479 387.473 26.972 401.029 36.9704 411.028C46.9689 421.026 60.5251 426.65 74.665 426.666H202.665C205.476 426.639 208.163 425.503 210.141 423.506C212.119 421.508 213.229 418.811 213.229 416C213.229 413.188 212.119 410.491 210.141 408.493C208.163 406.496 205.476 405.36 202.665 405.333H74.665C66.181 405.323 58.0472 401.949 52.0481 395.95C46.049 389.951 42.6746 381.817 42.665 373.333H223.999C225.408 373.347 226.807 373.081 228.113 372.551C229.419 372.021 230.607 371.237 231.608 370.246C232.61 369.254 233.405 368.073 233.947 366.772C234.49 365.472 234.769 364.076 234.769 362.667C234.769 361.257 234.49 359.861 233.947 358.561C233.405 357.26 232.61 356.079 231.608 355.087C230.607 354.096 229.419 353.312 228.113 352.782C226.807 352.252 225.408 351.986 223.999 352V352Z" fill="black"/>
<path d="M206.4 143.632C203.319 141.853 199.824 140.917 196.267 140.917C192.709 140.917 189.214 141.854 186.133 143.632C183.052 145.411 180.494 147.97 178.715 151.051C176.937 154.132 176 157.626 176 161.184V286.816C175.987 290.379 176.914 293.882 178.69 296.971C180.466 300.06 183.026 302.625 186.111 304.406C189.197 306.187 192.698 307.122 196.261 307.115C199.824 307.108 203.322 306.16 206.4 304.367L315.2 241.551C318.281 239.772 320.839 237.214 322.617 234.133C324.395 231.053 325.332 227.558 325.332 224.001C325.332 220.444 324.395 216.949 322.617 213.869C320.839 210.788 318.281 208.23 315.2 206.451L206.4 143.632ZM197.333 284.967V163.032L302.933 224L197.333 284.967Z" fill="black"/>
<path d="M487.542 340.191L397.942 250.591C396.45 249.099 394.549 248.084 392.48 247.672C390.411 247.261 388.266 247.472 386.317 248.279C384.368 249.087 382.703 250.454 381.53 252.208C380.358 253.962 379.733 256.024 379.733 258.134V307.555C338.146 310.344 302.316 329.555 275.612 363.545C254.033 391.009 246.071 418.322 245.743 419.471C245.131 421.617 245.208 423.902 245.962 426.003C246.717 428.103 248.111 429.914 249.949 431.181C251.787 432.447 253.976 433.106 256.208 433.063C258.44 433.02 260.602 432.278 262.39 430.942C262.933 430.537 314.622 392.49 379.733 388.59V437.335C379.733 439.444 380.358 441.507 381.53 443.261C382.703 445.015 384.368 446.382 386.317 447.189C388.266 447.997 390.411 448.208 392.48 447.797C394.549 447.385 396.45 446.369 397.942 444.878L487.542 355.278C488.532 354.287 489.318 353.111 489.855 351.817C490.391 350.523 490.667 349.135 490.667 347.734C490.667 346.333 490.391 344.946 489.855 343.652C489.318 342.357 488.532 341.181 487.542 340.191V340.191ZM401.066 411.582V377.6C401.066 374.771 399.942 372.058 397.942 370.058C395.942 368.057 393.229 366.933 390.4 366.933C344.979 366.933 305.22 382.464 279.625 395.669C283.541 388.849 287.956 382.328 292.833 376.158C317.909 344.558 350.733 328.533 390.4 328.533C393.229 328.533 395.942 327.409 397.942 325.409C399.943 323.408 401.067 320.695 401.067 317.866V283.885L464.915 347.733L401.066 411.582Z" fill="black"/>
</svg>
